<svg width="94" height="94" viewBox="0 0 94 94" fill="none" xmlns="http://www.w3.org/2000/svg">
<path d="M82 24.7448C79.3805 25.8891 76.5783 26.6719 73.6238 27.0032C76.6392 25.2266 78.9236 22.3962 80.0202 19.0539C77.2179 20.71 74.0806 21.9144 70.7606 22.5468C68.1107 19.7464 64.3338 18 60.1304 18C52.0892 18 45.571 24.4437 45.571 32.393C45.571 33.5071 45.6928 34.6212 45.9365 35.6751C33.8443 35.0729 23.0922 29.3518 15.9344 20.6197C14.6855 22.7575 13.9545 25.2266 13.9545 27.8463C13.9545 32.8447 16.5131 37.2409 20.4423 39.8304C18.0665 39.7702 15.8125 39.1078 13.8327 38.0238C13.8327 38.084 13.8327 38.1442 13.8327 38.2044C13.8327 45.1902 18.8584 51.0016 25.529 52.3265C24.3106 52.6577 23.0313 52.8384 21.6911 52.8384C20.7469 52.8384 19.8331 52.748 18.9498 52.5674C20.8078 58.2884 26.1686 62.4437 32.565 62.5642C27.5697 66.4184 21.2952 68.7369 14.4723 68.7369C13.2844 68.7369 12.127 68.6767 11 68.5261C17.4269 72.6212 25.1025 75 33.3265 75C60.1 75 74.7508 53.0792 74.7508 34.0491C74.7508 33.4168 74.7508 32.8146 74.7203 32.1822C77.5834 30.1648 80.0506 27.6355 82 24.7448Z" fill="white"/>
</svg>
